<svg xmlns="http://www.w3.org/2000/svg" width="47" height="47" fill="none" viewBox="0 0 47 47"><path fill="#000" fill-rule="evenodd" d="M30.157.001c.81 0 1.46.66 1.537 1.466.691 7.193 6.416 12.917 13.61 13.608.806.078 1.465.727 1.465 1.537v13.545c0 .81-.659 1.46-1.465 1.537-7.194.69-12.919 6.415-13.61 13.608-.077.807-.726 1.466-1.537 1.466H16.612c-.81 0-1.46-.66-1.537-1.466-.691-7.193-6.416-12.917-13.61-13.608C.66 31.616 0 30.967 0 30.157V16.611c0-.81.659-1.46 1.465-1.537 7.194-.69 12.919-6.415 13.61-13.608C15.152.659 15.802 0 16.612 0zM9.39 23.345c0 7.781 6.301 14.089 14.074 14.089s14.075-6.308 14.075-14.09c0-7.78-6.302-14.088-14.075-14.088S9.39 15.564 9.39 23.345" clip-rule="evenodd"/></svg>