<svg xmlns="http://www.w3.org/2000/svg" fill="none" class="h-8" style="fill:currentColor" viewBox="0 0 120 48"><path d="M120 6.463v35.2c0 5.585-.063 5.836-.752 5.836h-8.524c-.69 0-.815-.251-.815-5.836v-35.2c0-5.584.125-5.835.815-5.835h8.524c.689 0 .752.251.752 5.835M96.1 27.043v-1.317c0-3.138-1.442-4.393-3.95-4.393-2.443 0-3.76 1.318-4.136 3.64-.125.69-.062 1.254-.439 1.254h-8.461c-.502 0-.502-.125-.502-.564 0-3.326 3.134-10.228 14.04-10.228 7.71 0 13.226 3.075 13.226 11.608v12.55c0 2.885 1.567 6.964 1.567 7.528 0 .251-.188.377-.377.377h-9.401c-.44 0-.502-.251-.815-1.82l-.25-1.192c-.189-.941-.314-1.255-.69-1.255-.502 0-.815 1.13-2.194 2.447C92.214 47.058 90.396 48 87.262 48c-5.077 0-9.653-2.886-9.653-9.16 0-7.028 5.454-10.04 13.54-10.354 4.199-.188 4.95.251 4.95-1.443m0 9.098v-1.255c0-1.255-.314-1.631-1.38-1.568l-2.318.125c-2.946.188-4.701 1.694-4.701 4.518 0 2.76 1.504 4.14 3.698 4.14 2.444 0 4.7-2.258 4.7-5.96M60.55 23.655c0-1.192-.5-1.318-2.82-1.318h-1.128c-.439 0-.501-.314-.501-2.886v-.44c0-2.572.062-2.823.501-2.823h1.316c2.32 0 2.633-.188 2.633-1.317v-3.89C60.55 3.638 64.249 0 71.394 0c2.82 0 4.764.44 5.077.627.126.126.126.314.126 2.636v.815c0 2.385 0 2.95-.188 2.95s-1.066-.565-2.57-.565c-2.006 0-3.26 1.004-3.26 4.517v3.89c0 1.13.44 1.318 3.26 1.318h2.82c.564 0 .564.251.564 2.824v.439c0 2.572-.062 2.886-.501 2.886h-2.883c-2.82 0-3.26.126-3.26 1.318v18.008c0 5.584-.188 5.835-.689 5.835h-8.712c-.502 0-.627-.251-.627-5.835z"/><path fill-rule="evenodd" d="M30.157.74c.81 0 1.46.66 1.537 1.466.691 7.193 6.416 12.917 13.61 13.608.806.078 1.465.727 1.465 1.537v13.545c0 .81-.659 1.46-1.465 1.537-7.194.69-12.919 6.415-13.61 13.608-.077.807-.726 1.466-1.537 1.466H16.612c-.81 0-1.46-.66-1.537-1.466-.691-7.193-6.416-12.917-13.61-13.608C.66 32.355 0 31.706 0 30.896V17.35c0-.81.659-1.46 1.465-1.537 7.194-.69 12.919-6.415 13.61-13.608.077-.807.727-1.466 1.537-1.466zM9.39 24.084c0 7.781 6.301 14.089 14.074 14.089s14.075-6.308 14.075-14.09c0-7.78-6.302-14.088-14.075-14.088S9.39 16.303 9.39 24.084" clip-rule="evenodd"/></svg>