<svg xmlns="http://www.w3.org/2000/svg" width="28" height="26" fill="currentColor" viewBox="0 0 28 26"><path d="M19.361 0a1 1 0 0 1 .707.293l7 7a1 1 0 0 1 .293.707v16a2 2 0 0 1-2 2h-3a1 1 0 0 1 0-2h3V9h-6a1 1 0 0 1-1-1V2h-11v9a1 1 0 0 1-2 0V2a2 2 0 0 1 2-2zm-6.049 15c.68 0 1.073.417 1.073 1.153v4.796c0 1.957-1.16 3.051-3.1 3.051-1.37 0-2.396-.61-2.847-1.655a2.2 2.2 0 0 1-.165-.822c0-.622.399-1.026.997-1.026.533 0 .837.253 1.007.839.141.507.487.785.985.785.633 0 .978-.41.978-1.19v-4.778c0-.736.393-1.153 1.072-1.153M6.37 15c.645 0 1.02.393 1.02 1.1v6.843c0 .67-.364 1.038-1.014 1.038-.434 0-.72-.174-1.031-.615l-3.258-4.634h-.047v4.15c0 .707-.38 1.1-1.02 1.1-.644 0-1.019-.393-1.019-1.1v-6.831C0 15.368.375 15 1.043 15c.41 0 .703.181 1.025.616L5.303 20.2h.047v-4.1c0-.707.38-1.1 1.02-1.1m13.055.133c1.816 0 3.047 1.214 3.047 3.087 0 1.86-1.295 3.074-3.176 3.074h-1.383v1.534c0 .737-.392 1.153-1.072 1.153s-1.078-.416-1.078-1.153v-6.535c0-.737.398-1.16 1.078-1.16zm-1.512 4.494h.932c.914 0 1.453-.49 1.453-1.401 0-.906-.54-1.396-1.442-1.396h-.943zM20.362 7h3.585l-3.586-3.586z"/></svg>